<?xml version="1.0" encoding="utf-8"?>
<!-- Generator: Adobe Illustrator 16.0.4, SVG Export Plug-In . SVG Version: 6.00 Build 0)  -->
<!DOCTYPE svg PUBLIC "-//W3C//DTD SVG 1.1//EN" "http://www.w3.org/Graphics/SVG/1.1/DTD/svg11.dtd">
<svg version="1.1" id="Ebene_1" xmlns="http://www.w3.org/2000/svg" xmlns:xlink="http://www.w3.org/1999/xlink" x="0px" y="0px"
	 width="16px" height="16px" viewBox="0 0 16 16" enable-background="new 0 0 16 16" xml:space="preserve">
<g>
	<rect fill="#3B5998" width="16" height="16"/>
</g>
<path fill="#FFFFFF" d="M12.911,9.533v3.102c0,0.197-0.164,0.361-0.363,0.361h-8.38c0.04-0.113,0.062-0.238,0.062-0.361V6.486h0.99
	l0.833-0.723H3.508v0.723H2.061v6.149c0,0.6,0.486,1.086,1.085,1.086h9.403c0.602,0,1.087-0.486,1.087-1.086V8.942L12.911,9.533z
	 M3.507,12.635c0,0.197-0.164,0.361-0.361,0.361c-0.198,0-0.362-0.164-0.362-0.361V7.209h0.723V12.635z"/>
<g>
	<path fill="#FFFFFF" d="M7.518,11.549c-0.022-0.016,0.024-0.121,0.138-0.322c0.11-0.199,0.271-0.443,0.476-0.729
		c0.2-0.283,0.423-0.596,0.66-0.93C9.029,9.234,9.245,8.92,9.439,8.625c0.188-0.292,0.356-0.538,0.491-0.738
		c0.134-0.2,0.189-0.313,0.168-0.343c-0.022-0.042-0.196-0.107-0.523-0.192c-0.33-0.086-0.692-0.182-1.088-0.289
		c-0.398-0.107-0.76-0.214-1.089-0.322c-0.327-0.107-0.516-0.196-0.56-0.268c-0.024-0.042,0.105-0.188,0.39-0.438
		c0.282-0.25,0.645-0.546,1.086-0.889c0.442-0.343,0.93-0.707,1.462-1.092s1.029-0.739,1.495-1.061
		c0.465-0.32,0.854-0.584,1.17-0.792c0.32-0.206,0.488-0.303,0.515-0.289c0.021,0.015-0.026,0.121-0.139,0.321
		c-0.115,0.201-0.272,0.443-0.477,0.729c-0.202,0.286-0.418,0.596-0.644,0.932c-0.226,0.336-0.442,0.65-0.648,0.942
		c-0.202,0.293-0.372,0.54-0.508,0.739c-0.135,0.2-0.193,0.307-0.169,0.322c0.023,0.029,0.195,0.085,0.526,0.171
		c0.328,0.085,0.69,0.182,1.085,0.289c0.399,0.107,0.767,0.214,1.108,0.322c0.339,0.107,0.52,0.203,0.54,0.289
		c0.023,0.057-0.113,0.207-0.404,0.449c-0.298,0.244-0.666,0.536-1.107,0.879C11.682,8.637,11.2,9,10.678,9.387
		c-0.52,0.385-1.014,0.742-1.477,1.068c-0.466,0.328-0.857,0.598-1.173,0.805C7.71,11.469,7.542,11.562,7.518,11.549z"/>
</g>
</svg>
