<?xml version="1.0" encoding="utf-8"?>
<!-- Generator: Adobe Illustrator 16.0.4, SVG Export Plug-In . SVG Version: 6.00 Build 0)  -->
<!DOCTYPE svg PUBLIC "-//W3C//DTD SVG 1.1//EN" "http://www.w3.org/Graphics/SVG/1.1/DTD/svg11.dtd">
<svg version="1.1" id="Ebene_1" xmlns="http://www.w3.org/2000/svg" xmlns:xlink="http://www.w3.org/1999/xlink" x="0px" y="0px"
	 width="16px" height="16px" viewBox="0 0 16 16" enable-background="new 0 0 16 16" xml:space="preserve">
<g>
	<rect fill="#3B5998" width="16" height="16"/>
</g>
<g>
	<path fill="#FFFFFF" d="M5.755,14.283c-0.02-0.019,0.019-0.159,0.112-0.421c0.093-0.261,0.225-0.579,0.393-0.954
		c0.169-0.374,0.351-0.782,0.547-1.222c0.197-0.438,0.374-0.85,0.533-1.233s0.294-0.706,0.408-0.968
		c0.111-0.263,0.159-0.412,0.14-0.449C7.869,8.979,7.724,8.895,7.453,8.783C7.181,8.67,6.882,8.545,6.554,8.404
		C6.227,8.264,5.928,8.123,5.657,7.983C5.385,7.843,5.231,7.726,5.194,7.632C5.175,7.577,5.282,7.384,5.517,7.057
		C5.751,6.73,6.05,6.342,6.414,5.892c0.366-0.448,0.767-0.925,1.208-1.43c0.439-0.505,0.852-0.969,1.235-1.39
		c0.383-0.42,0.706-0.766,0.967-1.038c0.264-0.271,0.403-0.398,0.422-0.379c0.018,0.02-0.019,0.159-0.111,0.421
		c-0.095,0.263-0.226,0.58-0.393,0.955c-0.17,0.375-0.349,0.78-0.534,1.22C9.02,4.691,8.842,5.103,8.673,5.486
		C8.505,5.869,8.364,6.192,8.252,6.454c-0.111,0.263-0.159,0.402-0.14,0.421C8.13,6.913,8.276,6.987,8.548,7.1
		c0.271,0.111,0.57,0.238,0.898,0.379c0.325,0.141,0.631,0.281,0.91,0.421c0.281,0.139,0.431,0.266,0.449,0.378
		c0.019,0.075-0.094,0.271-0.336,0.588c-0.243,0.319-0.548,0.703-0.912,1.152c-0.365,0.448-0.764,0.925-1.193,1.43
		c-0.431,0.506-0.837,0.974-1.221,1.403c-0.384,0.432-0.706,0.782-0.967,1.053C5.914,14.176,5.774,14.302,5.755,14.283z"/>
</g>
</svg>
